<svg xmlns="http://www.w3.org/2000/svg" height="8.795" width="13.424"><path d="M13.192 8.795H.232A.23.23 0 0 1 0 8.563V.23A.23.23 0 0 1 .23 0h12.962a.23.23 0 0 1 .232.23v8.333a.23.23 0 0 1-.232.232z" fill="#f5f5f5"/><path d="M13.423.677H0V.23A.23.23 0 0 1 .23 0h12.962a.23.23 0 0 1 .232.23zM0 2.706h13.423v.677H0zm0-1.353h13.423v.676H0zm13.423 3.383H.23A.23.23 0 0 1 0 4.504V4.06h13.423zM0 6.765h13.423v.677H0zm13.192 2.03H.232A.23.23 0 0 1 0 8.563v-.445h13.423v.445a.23.23 0 0 1-.23.232zM0 5.412h13.423v.677H0z" fill="#ff4b55"/><path d="M6.017 0H.23A.23.23 0 0 0 0 .23v4.274c0 .128.104.232.23.232h5.787a.23.23 0 0 0 .232-.232V.23A.23.23 0 0 0 6.016 0z" fill="#41479b"/><path d="M.65.53L.7.686h.163c.02 0 .03.028.013.04l-.13.097.048.154A.022.022 0 0 1 .76 1L.63.906.496 1A.022.022 0 0 1 .464.976l.05-.154-.13-.097a.022.022 0 0 1 .01-.04h.163L.61.53a.022.022 0 0 1 .04 0zm0 .805l.05.154h.163c.02 0 .03.027.013.04l-.13.095.048.155a.022.022 0 0 1-.033.024L.63 1.71l-.133.094a.022.022 0 0 1-.033-.024l.05-.155-.13-.096a.022.022 0 0 1 .01-.04h.163l.052-.155a.022.022 0 0 1 .04 0zm0 .805l.05.152h.163c.02.002.03.028.013.04l-.13.097.048.153a.022.022 0 0 1-.033.025l-.13-.094-.133.094a.022.022 0 0 1-.033-.025l.05-.154-.13-.097a.022.022 0 0 1 .01-.04h.163l.052-.154a.022.022 0 0 1 .04 0zm0 .802l.05.154h.163c.02 0 .03.028.013.04l-.13.097.048.154a.022.022 0 0 1-.033.024l-.13-.093-.133.095a.022.022 0 0 1-.033-.025l.05-.154-.13-.096a.022.022 0 0 1 .01-.04h.163L.61 2.94a.022.022 0 0 1 .04 0zm0 .804L.7 3.9h.163c.02 0 .03.028.013.04l-.13.096.048.155a.022.022 0 0 1-.033.025L.63 4.12l-.133.095a.022.022 0 0 1-.033-.024l.05-.154-.13-.096a.022.022 0 0 1 .01-.04h.163l.052-.154a.022.022 0 0 1 .04 0zM1.274.925l.05.154h.163c.02 0 .03.027.013.04l-.13.096.048.154a.022.022 0 0 1-.033.024L1.253 1.3l-.132.094a.022.022 0 0 1-.032-.024l.05-.154-.132-.097a.022.022 0 0 1 .013-.04h.16l.052-.155a.022.022 0 0 1 .042 0zm0 .805l.05.153h.163c.02 0 .03.028.013.04l-.13.096.048.154a.022.022 0 0 1-.033.024l-.132-.094-.132.094a.022.022 0 0 1-.032-.024l.05-.155-.132-.097a.022.022 0 0 1 .013-.04h.16l.052-.154a.022.022 0 0 1 .042 0zm0 .803l.05.153.163.002c.02 0 .03.026.013.04l-.13.095.048.154a.022.022 0 0 1-.033.025l-.132-.094-.132.094a.022.022 0 0 1-.032-.025l.05-.154-.132-.096a.022.022 0 0 1 .013-.04h.16l.052-.154a.022.022 0 0 1 .042 0zm0 .803l.05.154h.163c.02 0 .03.028.013.04l-.13.097.048.154a.022.022 0 0 1-.033.026l-.132-.095-.132.096a.022.022 0 0 1-.032-.025l.05-.153-.132-.096a.022.022 0 0 1 .013-.04h.16l.052-.154a.022.022 0 0 1 .042 0zM1.898.53l.05.155h.163c.022 0 .03.028.013.04l-.13.097.05.154A.022.022 0 0 1 2.008 1L1.876.906 1.745 1a.022.022 0 0 1-.033-.024L1.76.822 1.63.725a.022.022 0 0 1 .013-.04h.162l.05-.154a.022.022 0 0 1 .043 0zm0 .805l.05.154h.163c.022 0 .03.027.013.04l-.13.095.05.155a.022.022 0 0 1-.034.024l-.133-.094-.132.094a.022.022 0 0 1-.033-.024l.048-.155-.13-.096a.022.022 0 0 1 .013-.04h.162l.05-.155a.022.022 0 0 1 .043 0zm0 .805l.05.152h.163c.022.002.03.028.013.04l-.13.097.05.153a.022.022 0 0 1-.034.025l-.133-.094-.132.094a.022.022 0 0 1-.033-.025l.048-.154-.13-.097a.022.022 0 0 1 .013-.04h.162l.05-.154a.022.022 0 0 1 .043 0zm0 .802l.05.154h.163c.022 0 .03.028.013.04l-.13.097.05.154a.022.022 0 0 1-.034.024l-.133-.093-.132.094a.022.022 0 0 1-.033-.023l.048-.154-.13-.096a.022.022 0 0 1 .013-.04h.162l.05-.155a.022.022 0 0 1 .043 0zm0 .804l.05.154h.163c.022 0 .03.028.013.04l-.13.096.05.155a.022.022 0 0 1-.034.025l-.133-.094-.132.095a.022.022 0 0 1-.033-.024l.048-.154-.13-.096a.022.022 0 0 1 .013-.04h.162l.05-.154a.022.022 0 0 1 .043 0zM2.52.925l.053.154h.162c.02 0 .03.027.012.04l-.13.096.05.154a.022.022 0 0 1-.035.024l-.13-.094-.133.094a.022.022 0 0 1-.035-.024l.05-.154-.13-.097a.022.022 0 0 1 .012-.04h.162l.05-.155a.022.022 0 0 1 .04 0zm0 .805l.053.153h.162c.02 0 .03.028.012.04l-.13.096.05.154a.022.022 0 0 1-.035.024l-.13-.094-.133.094a.022.022 0 0 1-.035-.024l.05-.155-.13-.097a.022.022 0 0 1 .012-.04h.162l.05-.154a.022.022 0 0 1 .04 0zm0 .803l.053.153.162.002c.02 0 .03.026.012.04l-.13.095.05.154a.022.022 0 0 1-.035.025l-.13-.094-.133.094a.022.022 0 0 1-.035-.025l.05-.154-.13-.096a.022.022 0 0 1 .012-.04h.162l.05-.154a.022.022 0 0 1 .04 0zm0 .803l.053.154h.162c.02 0 .03.028.012.04l-.13.097.05.154a.022.022 0 0 1-.035.026l-.13-.095-.133.096a.022.022 0 0 1-.035-.025l.05-.153-.13-.096a.022.022 0 0 1 .012-.04h.162l.05-.154a.022.022 0 0 1 .04 0zM3.145.53l.05.155h.163c.02 0 .03.028.013.04l-.13.097.05.154A.022.022 0 0 1 3.256 1L3.124.906 2.994 1a.022.022 0 0 1-.035-.024l.048-.154-.13-.097a.022.022 0 0 1 .013-.04h.163l.05-.154a.022.022 0 0 1 .042 0zm0 .805l.05.154h.163c.02 0 .03.027.013.04l-.13.095.05.155a.022.022 0 0 1-.034.024l-.132-.094-.13.094a.022.022 0 0 1-.035-.024l.048-.155-.13-.096a.022.022 0 0 1 .013-.04h.163l.05-.155a.022.022 0 0 1 .042 0zm0 .805l.05.152h.163c.02.002.03.028.013.04l-.13.097.05.153a.022.022 0 0 1-.034.025l-.132-.094-.13.094a.022.022 0 0 1-.035-.025l.048-.154-.13-.097a.022.022 0 0 1 .013-.04h.163l.05-.154a.022.022 0 0 1 .042 0zm0 .802l.05.154h.163c.02 0 .03.028.013.04l-.13.097.05.154a.022.022 0 0 1-.034.024l-.132-.093-.13.094a.022.022 0 0 1-.035-.023l.048-.154-.13-.096a.022.022 0 0 1 .013-.04h.163l.05-.155a.022.022 0 0 1 .042 0zm0 .804l.05.154h.163c.02 0 .03.028.013.04l-.13.096.05.155a.022.022 0 0 1-.034.025l-.132-.094-.13.095a.022.022 0 0 1-.035-.024l.048-.154-.13-.096a.022.022 0 0 1 .013-.04h.163l.05-.154a.022.022 0 0 1 .042 0zM3.77.925l.05.154h.162c.02 0 .03.027.013.04l-.13.096.048.154a.022.022 0 0 1-.033.024L3.748 1.3l-.13.094a.022.022 0 0 1-.035-.024l.05-.154-.13-.097a.022.022 0 0 1 .01-.04h.163l.052-.155a.022.022 0 0 1 .04 0zm0 .805l.05.153h.162c.02 0 .03.028.013.04l-.13.096.048.154a.022.022 0 0 1-.033.024l-.132-.094-.13.094a.022.022 0 0 1-.035-.024l.05-.155-.13-.097a.022.022 0 0 1 .01-.04h.163l.052-.154a.022.022 0 0 1 .04 0zm0 .803l.05.153.162.002c.02 0 .03.026.013.04l-.13.095.048.154a.022.022 0 0 1-.033.025l-.132-.094-.13.094a.022.022 0 0 1-.035-.025l.05-.154-.13-.096a.022.022 0 0 1 .01-.04h.163l.052-.154a.022.022 0 0 1 .04 0zm0 .803l.05.154h.162c.02 0 .03.028.013.04l-.13.097.048.154a.022.022 0 0 1-.033.026l-.132-.095-.13.096a.022.022 0 0 1-.035-.025l.05-.153-.13-.096a.022.022 0 0 1 .01-.04h.163l.052-.154a.022.022 0 0 1 .04 0zM4.393.53l.05.155h.163c.02 0 .03.028.013.04l-.132.097.05.154A.022.022 0 0 1 4.503 1L4.372.906 4.24 1a.022.022 0 0 1-.033-.024l.05-.154-.132-.097a.022.022 0 0 1 .013-.04H4.3L4.35.53a.022.022 0 0 1 .043 0zm0 .805l.05.154h.163c.02 0 .03.027.013.04l-.132.095.05.155a.022.022 0 0 1-.034.024l-.132-.094-.132.094a.022.022 0 0 1-.033-.024l.05-.155-.132-.096a.022.022 0 0 1 .013-.04H4.3l.05-.155a.022.022 0 0 1 .043 0zm0 .805l.05.152h.163c.02.002.03.028.013.04l-.132.097.05.153a.022.022 0 0 1-.034.025l-.132-.094-.132.094a.022.022 0 0 1-.033-.025l.05-.154-.132-.097a.022.022 0 0 1 .013-.04H4.3l.05-.154a.022.022 0 0 1 .043 0zm0 .802l.05.154h.163c.02 0 .03.028.013.04l-.132.097.05.154a.022.022 0 0 1-.034.024l-.132-.093-.132.094a.022.022 0 0 1-.033-.023l.05-.154-.132-.096a.022.022 0 0 1 .013-.04H4.3l.05-.155a.022.022 0 0 1 .043 0zm0 .804l.05.154h.163c.02 0 .03.028.013.04l-.132.096.05.155a.022.022 0 0 1-.034.025l-.132-.094-.132.095a.022.022 0 0 1-.033-.024l.05-.154-.132-.096a.022.022 0 0 1 .013-.04H4.3l.05-.154a.022.022 0 0 1 .043 0zM5.017.925l.05.154h.163c.02 0 .03.027.013.04l-.13.096.048.154a.022.022 0 0 1-.032.024L4.996 1.3l-.132.094a.022.022 0 0 1-.033-.024l.05-.154-.13-.097a.022.022 0 0 1 .012-.04h.162l.05-.155a.022.022 0 0 1 .043 0zm0 .805l.05.153h.163c.02 0 .03.028.013.04l-.13.096.048.154a.022.022 0 0 1-.032.024l-.132-.094-.132.094a.022.022 0 0 1-.033-.024l.05-.155-.13-.097a.022.022 0 0 1 .012-.04h.162l.05-.154a.022.022 0 0 1 .043 0zm0 .803l.05.153.163.002c.02 0 .03.026.013.04l-.13.095.048.154a.022.022 0 0 1-.032.025l-.132-.094-.132.094a.022.022 0 0 1-.033-.025l.05-.154-.13-.096a.022.022 0 0 1 .012-.04h.162l.05-.154a.022.022 0 0 1 .043 0zm0 .803l.05.154h.163c.02 0 .03.028.013.04l-.13.097.048.154a.022.022 0 0 1-.032.026l-.132-.095-.132.096a.022.022 0 0 1-.033-.025l.05-.153-.13-.096a.022.022 0 0 1 .012-.04h.162l.05-.154a.022.022 0 0 1 .043 0zM5.64.53l.052.155h.162c.02 0 .03.028.012.04l-.13.097.05.154A.022.022 0 0 1 5.75 1L5.62.906 5.488 1a.022.022 0 0 1-.034-.024l.05-.154-.13-.097a.022.022 0 0 1 .012-.04h.162l.05-.154a.022.022 0 0 1 .042 0zm0 .805l.052.154h.162c.02 0 .03.027.012.04l-.13.095.05.155a.022.022 0 0 1-.035.024l-.13-.094-.132.094a.022.022 0 0 1-.034-.024l.05-.155-.13-.096a.022.022 0 0 1 .012-.04h.162l.05-.155a.022.022 0 0 1 .042 0zm0 .805l.052.152h.162c.02.002.03.028.012.04l-.13.097.05.153a.022.022 0 0 1-.035.025l-.13-.094-.132.094a.022.022 0 0 1-.034-.025l.05-.154-.13-.097a.022.022 0 0 1 .012-.04h.162l.05-.154a.022.022 0 0 1 .042 0zm0 .802l.052.154h.162c.02 0 .03.028.012.04l-.13.097.05.154a.022.022 0 0 1-.035.024l-.13-.093-.132.094a.022.022 0 0 1-.034-.023l.05-.154-.13-.096a.022.022 0 0 1 .012-.04h.162l.05-.155a.022.022 0 0 1 .042 0zm0 .804l.052.154h.162c.02 0 .03.028.012.04l-.13.096.05.155a.022.022 0 0 1-.035.025l-.13-.094-.132.095a.022.022 0 0 1-.034-.024l.05-.154-.13-.096a.022.022 0 0 1 .012-.04h.162l.05-.154a.022.022 0 0 1 .042 0z" fill="#f5f5f5"/></svg>